<?xml version="1.0" standalone="no"?>
<!DOCTYPE svg PUBLIC "-//W3C//DTD SVG 20010904//EN"
 "http://www.w3.org/TR/2001/REC-SVG-20010904/DTD/svg10.dtd">
<svg version="1.0" xmlns="http://www.w3.org/2000/svg"
 width="512.000000pt" height="512.000000pt" viewBox="0 0 512.000000 512.000000"
 preserveAspectRatio="xMidYMid meet">
<metadata>
Created by potrace 1.14, written by Peter Selinger 2001-2017
</metadata>
<g transform="translate(0.000000,512.000000) scale(0.100000,-0.100000)"
fill="#000000" stroke="none">
<path d="M1520 4891 c-481 -159 -876 -422 -1120 -746 -75 -100 -173 -294 -200
-400 -137 -526 205 -952 909 -1131 242 -62 428 -170 621 -363 204 -204 340
-449 380 -683 23 -138 26 -121 -34 -166 -98 -74 -210 -179 -301 -282 -104
-117 -235 -289 -235 -307 0 -7 56 -96 125 -197 69 -101 125 -186 125 -189 0
-3 -89 -56 -197 -118 -109 -61 -200 -113 -202 -115 -2 -2 179 -4 403 -4 l408
0 -36 41 c-51 56 -99 133 -126 204 -31 79 -34 215 -7 292 79 226 377 365 657
309 112 -23 196 -64 270 -132 74 -69 115 -140 136 -235 14 -61 15 -84 5 -148
-14 -93 -61 -195 -125 -273 l-47 -58 403 0 403 0 -105 62 c-58 33 -147 85
-197 115 -51 30 -93 57 -93 61 0 4 56 90 125 192 69 101 125 188 125 194 0 5
-39 62 -87 125 -96 128 -377 416 -460 471 l-51 35 5 50 c29 260 172 536 392
755 194 194 380 303 622 364 791 201 1122 719 839 1314 -118 248 -375 515
-673 701 -163 101 -426 218 -626 277 l-94 28 -33 -39 c-52 -61 -94 -147 -110
-227 -35 -169 39 -347 177 -423 47 -26 64 -30 129 -30 91 1 146 24 225 97 l54
49 21 -42 c119 -232 165 -513 111 -679 -89 -280 -374 -337 -765 -156 l-92 43
-35 -61 c-19 -34 -73 -101 -124 -151 -138 -138 -268 -195 -448 -195 -112 0
-160 12 -276 67 -77 37 -108 59 -171 122 -42 42 -96 109 -119 149 -24 39 -44
72 -46 72 -1 0 -40 -18 -86 -39 -47 -22 -127 -55 -179 -72 -88 -30 -105 -33
-225 -33 -120 -1 -134 1 -186 25 -187 88 -257 312 -189 604 22 97 62 210 102
288 l29 58 54 -49 c123 -113 254 -131 377 -53 153 97 207 344 116 526 -31 61
-99 145 -117 144 -9 0 -68 -17 -131 -38z"/>
<path d="M2425 4547 c-126 -48 -231 -148 -295 -282 -54 -112 -72 -198 -72
-330 1 -186 58 -344 166 -463 292 -320 752 -142 842 326 58 302 -76 612 -314
730 -68 33 -83 37 -171 39 -80 3 -106 -1 -156 -20z"/>
</g>
</svg>
