<svg width="290" height="343" viewBox="0 0 290 343" fill="none" xmlns="http://www.w3.org/2000/svg">
<path d="M209.814 61.78C239.562 77.764 276.414 85.756 286.182 106.18C295.95 126.826 278.412 159.904 269.532 191.428C260.43 222.952 259.986 252.922 244.446 268.462C228.906 284.002 198.27 285.334 169.632 294.658C140.772 303.76 113.91 321.076 86.604 321.298C59.298 321.742 31.326 305.314 16.452 281.338C1.35603 257.584 -0.641969 226.282 0.912031 197.866C2.46603 169.672 7.79404 144.586 11.568 111.286C15.342 77.986 17.34 36.694 37.764 16.492C58.188 -3.93202 96.594 -3.266 127.008 9.166C157.422 21.376 180.066 45.796 209.814 61.78Z" fill="#F5B82E"/>
<path d="M153.238 55.5614C155.82 55.4962 158.172 57.3324 159.363 59.6263C160.554 61.9203 160.77 64.5949 160.71 67.1796C160.65 69.7643 160.338 72.353 160.566 74.9283C161.049 80.4071 164.112 85.6019 168.668 88.6732C166.951 88.8066 165.266 88.0099 163.968 86.8755C162.671 85.741 161.699 84.2875 160.744 82.8523C159.936 81.6378 159.123 80.4151 158.542 79.0762C157.692 77.1146 157.369 74.9714 157.063 72.8551C156.311 67.6444 155.617 62.4252 154.982 57.1989" fill="#2F2E41"/>
<path d="M109.51 336.589L118.221 336.588L122.364 302.946L109.509 302.947L109.51 336.589Z" fill="#FFB6B6"/>
<path d="M139.353 336.391C139.624 336.849 139.767 338.325 139.767 338.857C139.767 340.492 138.444 341.817 136.811 341.817H109.836C108.722 341.817 107.819 340.913 107.819 339.797V338.673C107.819 338.673 106.485 335.293 109.232 331.127C109.232 331.127 112.647 334.389 117.749 329.28L119.254 326.551L130.145 334.527L136.182 335.271C137.502 335.434 138.674 335.245 139.353 336.391Z" fill="#2F2E41"/>
<path d="M147.1 330.238L155.567 332.283L167.478 300.554L154.981 297.534L147.1 330.238Z" fill="#FFB6B6"/>
<path d="M176.156 337.057C176.312 337.565 176.106 339.034 175.981 339.551C175.598 341.14 174.001 342.117 172.414 341.734L146.192 335.396C145.109 335.135 144.443 334.044 144.704 332.959L144.968 331.866C144.968 331.866 144.463 328.267 148.109 324.863C148.109 324.863 150.664 328.836 156.821 325.068L158.923 322.769L167.642 333.081L173.336 335.222C174.582 335.691 175.764 335.783 176.156 337.057Z" fill="#2F2E41"/>
<path d="M197.614 168.668C195.991 167.35 194.8 165.774 194.134 164.221L177.881 152.643L183.61 145.06L199.48 157.621C201.135 157.953 202.921 158.795 204.544 160.113C208.251 163.124 209.706 167.48 207.792 169.843C205.878 172.205 201.322 171.679 197.614 168.668Z" fill="#FFB6B6"/>
<path d="M194.616 151.615L193.857 153.17L189.92 161.217L188.755 163.592L177.302 153.294L168.092 145.016L146.443 125.555C144.941 124.205 144.208 122.373 144.208 120.549C144.208 118.366 145.257 116.201 147.283 114.885C148.538 114.069 150.026 113.698 151.515 113.826C155.03 114.129 162.111 114.778 169.623 115.675L172.208 123.168L170.941 129.899L167.495 128.878L170.634 131.514L194.616 151.615Z" fill="white"/>
<path d="M126.137 143.672C127.806 143.681 131.307 166.321 128.697 169.727C126.555 172.522 165.795 169.727 165.795 169.727C162.106 168.976 163.766 144.79 167.73 143.672L144.053 136.41L126.137 143.672Z" fill="#FFB6B6"/>
<path d="M164.052 166.673H129.167C129.167 166.673 114.62 189.803 114.62 234.653L108.647 306.841L123.578 307.695L147.634 209.84L160.854 257.881L151.732 309.133H166.188L183.302 251.341L179.886 220.985C179.886 220.985 176.322 179.27 164.052 166.673Z" fill="#2F2E41"/>
<path d="M172.208 123.168L170.941 129.899L170.634 131.514L168.092 145.016L164.644 150.095C164.644 150.095 140.093 142.474 128.576 151.871L119.313 121.886L129.124 100.529L136.802 96.2574L138.082 91.1317H154.347L156.852 96.2574L164.103 99.6746L169.623 115.675L172.208 123.168Z" fill="white"/>
<path d="M167.269 98.787C165.94 100.401 164.357 101.582 162.8 102.236L151.108 118.417L143.581 112.621L156.252 96.8305C156.597 95.1756 157.452 93.3943 158.781 91.7798C161.818 88.0914 166.18 86.6701 168.524 88.6051C170.868 90.5401 170.306 95.0986 167.269 98.787Z" fill="#FFB6B6"/>
<path d="M135.749 100.799C135.749 100.799 123.366 93.9825 119.346 100.799C115.916 106.615 112.934 136.003 112.133 144.506C111.992 145.998 112.352 147.49 113.156 148.755C115.536 152.5 120.819 152.958 123.807 149.679L162.129 107.616L150.215 101.651L129.792 122.954L135.749 100.799Z" fill="white"/>
<path d="M144.246 87.8726C152.845 87.8726 159.816 80.8924 159.816 72.2819C159.816 63.6713 152.845 56.6911 144.246 56.6911C135.647 56.6911 128.676 63.6713 128.676 72.2819C128.676 80.8924 135.647 87.8726 144.246 87.8726Z" fill="#FFB6B6"/>
<path d="M156.236 63.8555C153.808 65.4967 152.255 68.2471 151.861 72.3456C150.336 71.1331 150.11 68.9274 150.69 66.1053C149.629 68.9939 141.023 83.6955 140.455 88.3432C140.094 91.3035 141.277 94.2875 143.092 96.6498C144.789 98.8523 147 100.581 149.265 102.203C145.008 100.646 141.46 97.2182 139.775 93.0027C137.339 86.9163 138.788 80.1431 140.703 73.7666C140.254 74.6132 139.609 76.1585 138.864 76.7624C137.907 77.538 136.771 77.2953 136.003 78.2603C135.068 79.4326 134.891 81.0726 135.181 82.5469C135.476 84.0211 136.186 85.371 136.884 86.6972C127.012 84.8386 124.077 73.5413 128.588 65.8448C125.703 71.0312 125.076 81.4752 128.748 86.1289C130.805 88.7398 133.785 90.7765 134.814 93.9382C135.536 96.1584 135.139 98.6332 134.146 100.747C133.153 102.861 131.598 104.66 129.954 106.318C129.28 106.999 128.588 107.656 127.867 108.296C127.07 107.483 125.717 107.867 125.423 108.968C125.259 109.579 125.001 110.209 124.674 110.853C121.753 111.517 117.808 110.596 117.206 114.708C117.046 115.804 115.066 115.318 113.966 115.495C114.262 114.67 113.305 113.939 112.606 114.467C111.692 115.157 110.718 115.562 109.697 115.732C107.095 115.59 104.547 114.927 102.288 113.636C109.49 109.142 115.808 110.439 118.623 102.423C119.064 101.169 119.205 98.5528 119.198 95.6104C119.18 88.9392 117.613 82.3906 114.914 76.291C114.585 75.5469 114.334 74.8279 114.226 74.1988C113.44 69.6577 114.664 63.4173 116.65 60.4807C118.637 57.55 122.072 55.6554 125.614 55.5606C127.382 55.5073 128.434 56.2829 129.995 55.4482C131.663 54.5541 132.053 55.7264 133.182 54.2107C135.199 51.505 138.634 50.1077 142.004 49.9893C145.374 49.8709 147.261 48.9293 150.323 50.3443C152.257 51.2383 154.484 56.2466 156.615 56.2771C161.026 56.3402 161.872 60.0454 156.236 63.8555Z" fill="#2F2E41"/>
<path d="M149.756 102.553C149.59 102.434 149.431 102.322 149.265 102.203C149.395 102.257 149.525 102.304 149.655 102.345L149.756 102.553Z" fill="#2F2E41"/>
<path d="M225.678 165.929C223.221 163.025 219.631 161.359 215.83 161.359H200.886C196.96 161.359 193.295 163.115 190.833 166.178C188.37 169.24 187.438 173.2 188.276 177.041L191.537 191.993C190.736 194.047 190.292 196.28 190.292 198.618C190.292 208.689 198.446 216.854 208.504 216.854C218.563 216.854 226.717 208.689 226.717 198.618C226.717 196.633 226.396 194.725 225.811 192.937L228.562 176.409C229.187 172.653 228.136 168.834 225.678 165.929ZM208.504 180.381C203.205 180.381 198.437 182.649 195.109 186.266L192.877 176.035C192.345 173.595 192.937 171.081 194.501 169.136C196.065 167.191 198.393 166.075 200.886 166.075H215.83C218.244 166.075 220.524 167.133 222.085 168.978C223.645 170.822 224.313 173.248 223.916 175.633L222.108 186.497C218.772 182.746 213.915 180.381 208.504 180.381Z" fill="#3F3D56"/>
<path d="M57.5649 302.37C55.6381 300.092 52.8232 298.786 49.842 298.786H38.1243C35.0453 298.786 32.1718 300.163 30.2407 302.565C28.3096 304.966 27.5789 308.071 28.2358 311.084L30.7929 322.808C30.1652 324.419 29.817 326.169 29.817 328.003C29.817 335.9 36.2109 342.303 44.0981 342.303C51.9853 342.303 58.3791 335.9 58.3791 328.003C58.3791 326.447 58.1276 324.95 57.6687 323.548L59.8259 310.587C60.316 307.643 59.4919 304.648 57.5649 302.37ZM44.0981 313.703C39.9429 313.703 36.2036 315.481 33.5939 318.317L31.844 310.295C31.4269 308.382 31.891 306.409 33.1175 304.884C34.3439 303.359 36.1688 302.484 38.1243 302.484H49.842C51.7354 302.484 53.5231 303.314 54.7469 304.761C55.9707 306.207 56.4941 308.109 56.1828 309.979L54.7649 318.498C52.1492 315.557 48.3407 313.703 44.0981 313.703Z" fill="#3F3D56"/>
<path d="M131.518 57.1391L130.389 56.7887C130.557 52.8209 131.628 49.2087 133.724 46L134.853 46.3504L131.518 57.1391Z" fill="white"/>
<path d="M131.524 55.7509L130.799 56.6856L121.892 49.7564L122.618 48.8216C126.55 50.2116 129.419 52.6163 131.524 55.7509Z" fill="white"/>
</svg>
